<svg viewBox="0 0 100 100" width="100%" height="100%">
  <rect x="10" y="10" width="80" height="80" stroke="#FF5733" stroke-width="6" fill="#000" />
  <rect x="20" y="20" width="60" height="60" stroke="#FF5733" stroke-width="6" fill="#000" />
  <rect x="30" y="30" width="40" height="40" stroke="#FF5733" stroke-width="6" fill="#000" />
  <path d="M 50 50 L 60 60 M 50 50 L 40 60 M 50 50 L 60 40 M 50 50 L 40 40" stroke="#FF5733" stroke-width="4" fill="none" />
  <circle cx="50" cy="50" r="15" stroke="#FF5733" stroke-width="4" fill="#FF9A66" />
  <circle cx="50" cy="50" r="10" stroke="#FF5733" stroke-width="4" fill="#FF9A66" />
  <circle cx="50" cy="50" r="5" stroke="#FF5733" stroke-width="4" fill="#FF9A66" />
  <rect x="25" y="20" width="50" height="10" fill="#FF9A66" />
  <rect x="25" y="70" width="50" height="10" fill="#FF9A66" />
  <rect x="20" y="25" width="10" height="50" fill="#FF9A66" />
  <rect x="70" y="25" width="10" height="50" fill="#FF9A66" />
  <rect x="34" y="34" width="32" height="32" stroke="#FFF" stroke-width="2" fill="none" />
  <rect x="40" y="40" width="20" height="20" stroke="#FFF" stroke-width="2" fill="none" />
  <rect x="38" y="35" width="24" height="5" fill="#FFF" />
  <rect x="38" y="60" width="24" height="5" fill="#FFF" />
  <rect x="35" y="38" width="5" height="24" fill="#FFF" />
  <rect x="60" y="38" width="5" height="24" fill="#FFF" />
</svg>
